<svg width="167" height="140" viewBox="0 0 167 140" fill="none" xmlns="http://www.w3.org/2000/svg">
<path d="M26.6711 126.916C58.7248 143.662 110.696 143.662 142.754 126.916C174.812 110.169 174.808 83.0206 142.754 66.2744C110.7 49.5283 58.7248 49.5245 26.6672 66.2744C-5.39033 83.0244 -5.3865 110.169 26.6711 126.916Z" fill="#FAFAFA"/>
<path d="M111.534 129.992C118.015 129.992 123.269 127.487 123.269 124.398C123.269 121.309 118.015 118.805 111.534 118.805C105.054 118.805 99.8003 121.309 99.8003 124.398C99.8003 127.487 105.054 129.992 111.534 129.992Z" fill="#F0F0F0"/>
<path d="M19.7766 27.6706V46.9151C19.7766 47.5464 20.2204 47.8066 20.7714 47.489L65.4507 21.6907C65.7398 21.5017 65.9805 21.2475 66.1533 20.9484C66.3261 20.6493 66.4262 20.3138 66.4455 19.969V0.709199C66.4455 0.0779188 65.9978 -0.182245 65.4507 0.135308L20.7714 25.9336C20.4796 26.1234 20.2371 26.3799 20.0642 26.682C19.8912 26.984 19.7926 27.3229 19.7766 27.6706Z" fill="#F0F0F0"/>
<path d="M22.8874 27.3685L36.2782 19.64C36.8941 19.2842 37.3877 19.5712 37.3877 20.279V33.7348C37.3667 34.1186 37.2552 34.4919 37.0624 34.8244C36.8696 35.1569 36.6008 35.439 36.2782 35.6478L22.8874 43.38C22.2752 43.732 21.7778 43.4451 21.7778 42.7373V29.2891C21.7986 28.9042 21.9099 28.5297 22.1027 28.1959C22.2954 27.8622 22.5643 27.5787 22.8874 27.3685Z" fill="#FAFAFA"/>
<path d="M33.7301 26.3545L29.7473 34.6109L27.7195 33.4401C27.5248 33.3336 27.2964 33.3068 27.0823 33.3653C26.8682 33.4239 26.6852 33.5631 26.5717 33.7539L21.7778 42.0217V42.7448C21.7778 43.4526 22.2752 43.7396 22.8874 43.3876L36.2782 35.6554C36.6002 35.4459 36.8684 35.1636 37.0612 34.8313C37.2539 34.4989 37.3658 34.1259 37.3877 33.7424V29.0097L34.7095 26.2015C34.6497 26.1178 34.5678 26.0524 34.473 26.0126C34.3782 25.9728 34.2742 25.9602 34.1726 25.976C34.071 25.9919 33.9758 26.0357 33.8977 26.1025C33.8196 26.1694 33.7615 26.2566 33.7301 26.3545Z" fill="#D80818"/>
<path d="M23.7903 32.2924C24.6177 31.7528 25.3062 31.0257 25.8001 30.1702C26.294 29.3147 26.5794 28.3548 26.633 27.3684C26.633 26.5382 26.3651 25.9375 25.9252 25.6161L22.8874 27.3684C22.5653 27.5779 22.2971 27.8602 22.1043 28.1925C21.9116 28.5248 21.7997 28.8979 21.7778 29.2814V32.4837C22.302 32.7898 23.006 32.7439 23.7903 32.2924Z" fill="#D80818"/>
<path d="M42.3842 17.3712L62.5048 5.75181C62.9639 5.48782 63.335 5.67529 63.335 6.17267C63.3148 6.45139 63.2291 6.72141 63.0848 6.96074C62.9406 7.20008 62.7418 7.40198 62.5048 7.55001L42.3842 19.1656C41.9251 19.4296 41.554 19.2421 41.554 18.7447C41.5747 18.4667 41.6607 18.1974 41.805 17.9588C41.9492 17.7202 42.1477 17.5189 42.3842 17.3712Z" fill="#FAFAFA"/>
<path d="M42.3842 21.3463L62.5048 9.72694C62.9639 9.46295 63.335 9.65042 63.335 10.1478C63.3148 10.4265 63.2291 10.6965 63.0848 10.9359C62.9406 11.1752 62.7418 11.3771 62.5048 11.5251L42.3842 23.1407C41.9251 23.4047 41.554 23.2172 41.554 22.7237C41.5742 22.445 41.6599 22.1749 41.8042 21.9356C41.9484 21.6963 42.1472 21.4944 42.3842 21.3463Z" fill="#FAFAFA"/>
<path d="M42.3842 25.3215L62.5048 13.706C62.9639 13.442 63.335 13.6294 63.335 14.123C63.3148 14.4017 63.2291 14.6717 63.0848 14.9111C62.9406 15.1504 62.7418 15.3523 62.5048 15.5003L42.3842 27.1159C41.9251 27.3837 41.554 27.1962 41.554 26.6989C41.5742 26.4201 41.6599 26.1501 41.8042 25.9108C41.9484 25.6714 42.1472 25.4695 42.3842 25.3215Z" fill="#FAFAFA"/>
<path d="M42.3842 29.2966L62.5048 17.6811C62.9639 17.4171 63.335 17.6046 63.335 18.1019C63.3142 18.38 63.2282 18.6492 63.084 18.8879C62.9398 19.1265 62.7413 19.3278 62.5048 19.4754L42.3842 31.114C41.9251 31.3779 41.554 31.1905 41.554 30.6931C41.5712 30.4111 41.6555 30.1372 41.7999 29.8943C41.9443 29.6514 42.1446 29.4465 42.3842 29.2966Z" fill="#FAFAFA"/>
<path d="M10.4414 88.22V59.9807C10.4598 59.6357 10.5595 59.2998 10.7324 59.0006C10.9052 58.7014 11.1464 58.4473 11.4362 58.2591L45.2269 38.7467C45.774 38.4292 46.2216 38.6855 46.2216 39.3206V67.5599C46.2023 67.9048 46.1023 68.2403 45.9295 68.5393C45.7567 68.8384 45.516 69.0926 45.2269 69.2816L11.4362 88.7939C10.8852 89.1115 10.4414 88.8551 10.4414 88.22Z" fill="#F0F0F0"/>
<path d="M10.4414 86.8083V88.22C10.4414 88.8551 10.8852 89.1115 11.4362 88.7939L45.2269 69.2816C45.516 69.0927 45.7567 68.8384 45.9295 68.5394C46.1023 68.2403 46.2023 67.9048 46.2216 67.5599V66.1443L10.4414 86.8083Z" fill="#D80818"/>
<path d="M26.7897 61.1974L30.233 61.0176C30.6539 60.9946 30.7687 61.2318 30.4894 61.5532L26.5333 66.0525C26.2541 66.3701 26.0283 66.2821 26.0283 65.8612V62.0047C26.0298 61.7988 26.1091 61.6012 26.2504 61.4514C26.3916 61.3017 26.5843 61.2109 26.7897 61.1974Z" fill="#D80818"/>
<path d="M25.9022 68.5202C25.4896 68.5256 25.0829 68.4213 24.7238 68.2179C23.8745 67.7244 23.4077 66.6876 23.4077 65.3332C23.4077 62.5708 25.3551 59.2117 27.7502 57.8152C28.9324 57.1303 30.0457 57.027 30.9027 57.5168C31.7597 58.0065 32.2227 59.0471 32.2227 60.3977C32.2227 63.1639 30.2715 66.5192 27.8802 67.9157C27.285 68.2865 26.6031 68.495 25.9022 68.5202ZM29.7282 57.4747C29.0743 57.5005 28.4385 57.6971 27.8841 58.0448C25.5617 59.3838 23.6755 62.655 23.6755 65.3332C23.6755 66.6034 24.0964 67.5484 24.8616 67.9884C25.6268 68.4284 26.6521 68.3251 27.7502 67.69C30.0725 66.347 31.9587 63.0988 31.9587 60.3977C31.9587 59.1275 31.5378 58.1863 30.7727 57.7425C30.4525 57.5634 30.0912 57.4711 29.7243 57.4747H29.7282Z" fill="#D80818"/>
<path d="M12.3048 33.7386L10.212 32.5372C9.21347 31.8677 7.82465 31.8945 6.29045 32.7821C3.22969 34.542 0.773438 39.0069 0.773438 42.7563V43.6095C0.773438 47.3589 5.81603 51.4297 5.81603 51.4297L7.87439 52.5966C7.87439 52.5966 6.63861 51.1849 6.78017 50.8941C8.14603 48.1241 11.7998 40.2962 11.7998 37.2355V36.3823C11.8076 35.7648 11.729 35.1492 11.5664 34.5535L11.7998 34.6874L12.3048 33.7386ZM6.28662 42.3355C4.75624 43.2154 3.52812 42.5 3.52812 40.7439C4.34687 40.6138 6.40905 37.0939 6.28662 35.9653C7.817 35.0853 9.0413 35.8007 9.04513 37.5569C8.99328 38.5141 8.71648 39.4457 8.2372 40.276C7.75792 41.1062 7.08965 41.8118 6.28662 42.3355Z" fill="#D80818"/>
<g opacity="0.2">
<path d="M12.3048 33.7386L10.212 32.5372C9.21347 31.8677 7.82465 31.8945 6.29045 32.7821C3.22969 34.542 0.773438 39.0069 0.773438 42.7563V43.6095C0.773438 47.3589 5.81603 51.4297 5.81603 51.4297L7.87439 52.5966C7.87439 52.5966 6.63861 51.1849 6.78017 50.8941C8.14603 48.1241 11.7998 40.2962 11.7998 37.2355V36.3823C11.8076 35.7648 11.729 35.1492 11.5664 34.5535L11.7998 34.6874L12.3048 33.7386ZM6.28662 42.3355C4.75624 43.2154 3.52812 42.5 3.52812 40.7439C4.34687 40.6138 6.40905 37.0939 6.28662 35.9653C7.817 35.0853 9.0413 35.8007 9.04513 37.5569C8.99328 38.5141 8.71648 39.4457 8.2372 40.276C7.75792 41.1062 7.08965 41.8118 6.28662 42.3355Z" fill="black"/>
</g>
<path d="M12.3052 33.7385C12.2823 33.7222 12.258 33.7081 12.2325 33.6964C11.2492 33.1454 9.93693 33.2219 8.49073 34.056C6.30994 35.3186 4.42375 37.9623 3.517 40.7438C3.16636 41.802 2.98054 42.9079 2.96606 44.0226V44.8872C2.96606 47.7758 6.23725 51.1274 7.74084 52.5162C7.77338 52.5453 7.80789 52.5722 7.84414 52.5965C7.93255 52.6507 8.03133 52.6857 8.1341 52.6994C8.23688 52.713 8.34138 52.705 8.44086 52.6758C8.54034 52.6466 8.63261 52.5969 8.71171 52.5298C8.7908 52.4628 8.85498 52.38 8.9001 52.2866C10.2009 49.6085 13.9848 41.6199 13.9848 38.5132V37.66C14.0077 35.7318 13.3535 34.3697 12.3052 33.7385ZM5.78196 42.5687C5.75019 42.3868 5.73483 42.2024 5.73605 42.0178C5.78658 41.0601 6.06238 40.1279 6.54103 39.2969C7.01969 38.4659 7.68769 37.7596 8.49073 37.2354C8.65114 37.1429 8.81875 37.0636 8.99192 36.9982C10.2774 36.5314 11.2492 37.2698 11.2492 38.827C11.1977 39.7838 10.921 40.7149 10.4417 41.5446C9.96233 42.3743 9.29389 43.0791 8.49073 43.6017C7.14017 44.3899 6.01534 43.9155 5.78196 42.5687Z" fill="#D80818"/>
<path d="M11.249 38.8308C11.1975 39.7876 10.9208 40.7188 10.4415 41.5485C9.96211 42.3782 9.29367 43.083 8.49051 43.6056C7.13995 44.3708 6.01512 43.9155 5.78174 42.5688C5.95706 42.5071 6.12615 42.4289 6.28676 42.3354C7.08929 41.8115 7.75698 41.1058 8.23561 40.2755C8.71424 39.4453 8.99032 38.5138 9.04144 37.5568C9.04319 37.3707 9.02653 37.1849 8.9917 37.002C10.2772 36.5353 11.249 37.2737 11.249 38.8308Z" fill="#D80818"/>
<g opacity="0.2">
<path d="M11.249 38.8308C11.1975 39.7876 10.9208 40.7188 10.4415 41.5485C9.96211 42.3782 9.29367 43.083 8.49051 43.6056C7.13995 44.3708 6.01512 43.9155 5.78174 42.5688C5.95706 42.5071 6.12615 42.4289 6.28676 42.3354C7.08929 41.8115 7.75698 41.1058 8.23561 40.2755C8.71424 39.4453 8.99032 38.5138 9.04144 37.5568C9.04319 37.3707 9.02653 37.1849 8.9917 37.002C10.2772 36.5353 11.249 37.2737 11.249 38.8308Z" fill="black"/>
</g>
<path d="M51.448 86.3339C51.448 86.3339 52.8292 77.5342 49.7608 69.9665C46.6924 62.3988 42.5565 61.932 40.414 63.0071C38.2715 64.0822 39.6488 68.2793 41.5618 71.099C44.1099 74.7987 48.3184 82.7643 48.1807 89.9188L51.448 86.3339Z" fill="#D80818"/>
<path opacity="0.2" d="M51.448 86.3339C51.448 86.3339 52.8292 77.5342 49.7608 69.9665C46.6924 62.3988 42.5565 61.932 40.414 63.0071C38.2715 64.0822 39.6488 68.2793 41.5618 71.099C44.1099 74.7987 48.3184 82.7643 48.1807 89.9188L51.448 86.3339Z" fill="black"/>
<path d="M50.0708 86.8924C50.0364 86.8914 50.0026 86.8836 49.9714 86.8693C49.9401 86.855 49.9121 86.8346 49.8889 86.8093C49.8657 86.7839 49.8478 86.7542 49.8363 86.7218C49.8249 86.6894 49.82 86.655 49.8221 86.6208C50.3271 74.5729 44.3089 65.5781 41.7111 63.8258C41.6827 63.8067 41.6583 63.7822 41.6394 63.7537C41.6205 63.7252 41.6074 63.6932 41.6008 63.6597C41.5942 63.6261 41.5943 63.5916 41.6011 63.558C41.6079 63.5245 41.6212 63.4926 41.6403 63.4642C41.6594 63.4359 41.6839 63.4115 41.7124 63.3926C41.7409 63.3737 41.7728 63.3605 41.8064 63.354C41.84 63.3474 41.8745 63.3475 41.9081 63.3543C41.9416 63.3611 41.9735 63.3744 42.0018 63.3935C45.0626 65.4365 50.8474 74.6341 50.3386 86.6437C50.3376 86.6777 50.3299 86.7112 50.3158 86.7422C50.3018 86.7731 50.2817 86.801 50.2568 86.8242C50.2318 86.8473 50.2026 86.8653 50.1706 86.877C50.1387 86.8887 50.1047 86.8939 50.0708 86.8924Z" fill="white"/>
<path d="M50.9046 96.7825C50.3805 95.4664 49.0261 93.9972 45.5483 92.4286C42.0705 90.8599 39.4536 88.7671 38.9715 87.2521C38.8265 86.8336 38.8075 86.3817 38.917 85.9525C39.0265 85.5233 39.2597 85.1357 39.5875 84.8379C39.5875 84.8379 36.3087 84.4553 35.8955 82.4467C35.379 79.9139 38.2446 79.7494 38.2446 79.7494C38.2446 79.7494 34.4837 74.4543 33.4851 72.0975C32.4866 69.7407 33.6382 69.5992 36.0638 70.4983C38.4895 71.3974 43.1112 75.9234 43.8266 77.3046C43.8266 77.3046 45.0777 75.7742 46.4245 76.7804C47.7712 77.7867 47.8362 80.7977 47.0404 81.8843C47.5771 81.7843 48.1312 81.842 48.6358 82.0505C49.1403 82.259 49.5735 82.6092 49.8831 83.0588C51.2528 84.8532 51.7043 89.341 51.7043 89.341L50.9046 96.7825Z" fill="#D80818"/>
<path d="M51.1493 95.5582C51.0912 95.5575 51.035 95.5376 50.9893 95.5016C50.9437 95.4656 50.9111 95.4156 50.8968 95.3593C49.0374 87.6117 40.211 75.2463 34.7284 71.3132C34.7005 71.2934 34.6768 71.2682 34.6586 71.2392C34.6405 71.2102 34.6282 71.1779 34.6225 71.1442C34.6168 71.1104 34.6179 71.0759 34.6255 71.0425C34.6332 71.0092 34.6473 70.9776 34.6672 70.9498C34.687 70.9219 34.7122 70.8982 34.7412 70.88C34.7702 70.8618 34.8025 70.8496 34.8362 70.8439C34.87 70.8382 34.9045 70.8392 34.9379 70.8469C34.9712 70.8545 35.0028 70.8687 35.0307 70.8885C40.5821 74.8713 49.5195 87.3937 51.4057 95.2368C51.4207 95.3043 51.4086 95.3749 51.3721 95.4335C51.3357 95.4922 51.2777 95.5342 51.2106 95.5506L51.1493 95.5582Z" fill="white"/>
<path d="M120.403 17.5434C120.358 17.5428 120.313 17.531 120.273 17.5089L119.198 16.8853C119.168 16.8682 119.142 16.8455 119.122 16.8183C119.101 16.7912 119.085 16.7602 119.077 16.7272C119.068 16.6942 119.065 16.6597 119.07 16.6258C119.074 16.5919 119.085 16.5591 119.102 16.5295C119.12 16.4999 119.142 16.4739 119.169 16.453C119.197 16.4322 119.227 16.4169 119.261 16.408C119.294 16.3991 119.328 16.3968 119.362 16.4012C119.396 16.4057 119.429 16.4168 119.458 16.4338L120.533 17.0575C120.563 17.0745 120.589 17.0973 120.61 17.1244C120.631 17.1515 120.646 17.1825 120.655 17.2155C120.664 17.2486 120.666 17.2831 120.662 17.317C120.657 17.3509 120.646 17.3837 120.629 17.4133C120.606 17.4529 120.573 17.4858 120.534 17.5086C120.494 17.5315 120.449 17.5434 120.403 17.5434Z" fill="white"/>
<path d="M50.905 40.2274V97.1498C50.905 97.7849 51.3488 98.0412 51.896 97.7237L118.291 59.3916C118.58 59.2026 118.821 58.9484 118.994 58.6493C119.167 58.3502 119.267 58.0147 119.286 57.6699V0.747515C119.286 0.112408 118.838 -0.14393 118.291 0.173623L51.896 38.5057C51.6071 38.6947 51.3669 38.949 51.1947 39.2481C51.0225 39.5473 50.9233 39.8828 50.905 40.2274Z" fill="#455A64"/>
<path d="M58.6758 50.7412C58.6758 52.7268 60.1564 53.4767 61.989 52.4208L114.623 22.0313V14.8538L61.989 45.2395C60.1564 46.2992 58.6758 48.7593 58.6758 50.7412Z" fill="#F5F5F5"/>
<path d="M119.098 12.279C120.927 11.223 122.412 11.9729 122.412 13.9547C122.412 15.9366 120.927 18.4005 119.098 19.4564L114.641 22.0313V14.8538L119.098 12.279Z" fill="#D80818"/>
<path d="M117.492 18.3277C117.301 18.3304 117.114 18.2815 116.949 18.1862C116.745 18.0501 116.583 17.8617 116.478 17.6408C116.373 17.42 116.329 17.1748 116.352 16.9313C116.379 16.3324 116.55 15.7489 116.85 15.2297C117.149 14.7105 117.569 14.2706 118.073 13.947C118.266 13.7899 118.502 13.6951 118.75 13.6754C118.998 13.6556 119.246 13.7117 119.461 13.8363C119.676 13.9609 119.848 14.1481 119.954 14.3729C120.061 14.5977 120.096 14.8495 120.055 15.0948C120.027 15.6934 119.856 16.2766 119.556 16.7957C119.257 17.3148 118.838 17.7548 118.334 18.0791C118.08 18.2343 117.789 18.32 117.492 18.3277ZM118.911 14.2149C118.706 14.225 118.507 14.2883 118.334 14.3985C117.911 14.6792 117.559 15.054 117.306 15.4934C117.052 15.9328 116.904 16.4249 116.872 16.9313C116.833 17.0836 116.844 17.2447 116.905 17.3899C116.966 17.535 117.073 17.6562 117.209 17.7348C117.346 17.8134 117.504 17.8451 117.66 17.825C117.816 17.805 117.961 17.7343 118.073 17.6238C118.496 17.3435 118.849 16.9688 119.102 16.5293C119.356 16.0898 119.504 15.5975 119.535 15.091C119.555 14.9393 119.534 14.7851 119.475 14.644C119.416 14.5029 119.32 14.38 119.198 14.2875C119.111 14.2376 119.012 14.2125 118.911 14.2149Z" fill="white"/>
<path d="M119.864 27.9883L68.9791 57.3486C68.6889 57.5364 68.4474 57.7904 68.2745 58.0897C68.1016 58.389 68.0022 58.725 67.9844 59.0702V74.7298C67.9844 75.3649 68.4282 75.6213 68.9791 75.3037L119.864 45.932C120.154 45.7437 120.395 45.4896 120.568 45.1904C120.741 44.8912 120.841 44.5553 120.859 44.2103V28.5622C120.84 27.9271 120.396 27.6707 119.864 27.9883Z" fill="#D80818"/>
<path opacity="0.2" d="M119.864 27.9883L68.9791 57.3486C68.6889 57.5364 68.4474 57.7904 68.2745 58.0897C68.1016 58.389 68.0022 58.725 67.9844 59.0702V74.7298C67.9844 75.3649 68.4282 75.6213 68.9791 75.3037L119.864 45.932C120.154 45.7437 120.395 45.4896 120.568 45.1904C120.741 44.8912 120.841 44.5553 120.859 44.2103V28.5622C120.84 27.9271 120.396 27.6707 119.864 27.9883Z" fill="white"/>
<path d="M87.4772 49.2797L96.6977 43.954C97.1568 43.69 97.528 43.8774 97.528 44.3748C97.5072 44.6529 97.4212 44.9221 97.2769 45.1608C97.1327 45.3994 96.9343 45.6007 96.6977 45.7483L87.4772 51.074C87.0181 51.338 86.647 51.1506 86.647 50.6532C86.6678 50.3751 86.7538 50.1059 86.898 49.8673C87.0423 49.6286 87.2407 49.4273 87.4772 49.2797Z" fill="white"/>
<path d="M86.647 54.2419C86.647 54.7393 87.0296 54.9267 87.4772 54.6628L115.349 38.5708C115.585 38.4222 115.783 38.22 115.927 37.9807C116.07 37.7415 116.156 37.4718 116.176 37.1935C116.176 36.7 115.793 36.5125 115.349 36.7765L87.4772 52.8684C87.2407 53.016 87.0423 53.2173 86.898 53.456C86.7538 53.6946 86.6678 53.9638 86.647 54.2419Z" fill="white"/>
<path d="M86.647 57.8306C86.647 58.328 87.0296 58.5154 87.4772 58.2515L115.349 42.1595C115.585 42.0109 115.783 41.8087 115.927 41.5695C116.07 41.3302 116.156 41.0605 116.176 40.7822C116.176 40.2887 115.793 40.1012 115.349 40.3652L87.4772 56.4571C87.2407 56.6047 87.0423 56.806 86.898 57.0447C86.7538 57.2833 86.6678 57.5525 86.647 57.8306Z" fill="white"/>
<path d="M86.647 61.4194C86.647 61.9168 87.0296 62.1043 87.4772 61.8403L115.349 45.7484C115.585 45.5997 115.783 45.3975 115.927 45.1583C116.07 44.919 116.156 44.6493 116.176 44.371C116.176 43.8775 115.793 43.69 115.349 43.954L87.4772 60.0459C87.2407 60.1936 87.0423 60.3949 86.898 60.6335C86.7538 60.8721 86.6678 61.1414 86.647 61.4194Z" fill="white"/>
<path d="M70.5472 58.2438L82.5454 51.315C83.0963 51.0013 83.5401 51.2576 83.5401 51.8889V63.9521C83.5214 64.2971 83.4216 64.6328 83.2488 64.9319C83.0759 65.2311 82.8349 65.4853 82.5454 65.6738L70.5472 72.5987C70.0001 72.9163 69.5525 72.6599 69.5525 72.0286V59.9655C69.5709 59.6204 69.6706 59.2846 69.8434 58.9854C70.0163 58.6861 70.2575 58.432 70.5472 58.2438Z" fill="white"/>
<path d="M80.2651 57.3371L76.6955 64.7364L74.8782 63.6881C74.7026 63.5868 74.494 63.5594 74.2982 63.6117C74.1024 63.6641 73.9353 63.792 73.8337 63.9674L69.5525 71.3783V72.0249C69.5525 72.66 70.0001 72.9163 70.5472 72.5987L82.5454 65.6738C82.8352 65.4855 83.0763 65.2314 83.2492 64.9322C83.4221 64.633 83.5217 64.2972 83.5401 63.9521V59.7168L81.126 57.1993C81.0713 57.129 80.9987 57.0747 80.9158 57.042C80.8329 57.0093 80.7428 56.9995 80.6548 57.0136C80.5668 57.0277 80.4843 57.0651 80.4157 57.122C80.3472 57.1789 80.2952 57.2532 80.2651 57.3371Z" fill="#D80818"/>
<path d="M71.3545 62.659C72.0963 62.175 72.7136 61.5231 73.1563 60.756C73.599 59.9889 73.8547 59.1282 73.9026 58.2438C73.9281 57.9502 73.8838 57.6548 73.7734 57.3815C73.6631 57.1083 73.4897 56.8649 73.2675 56.6714L70.5472 58.2438C70.2575 58.4321 70.0163 58.6862 69.8434 58.9854C69.6706 59.2846 69.5709 59.6205 69.5525 59.9655V62.835C70.0154 63.1028 70.6505 63.0645 71.3545 62.659Z" fill="#D80818"/>
<path d="M119.864 51.315L68.9791 80.6753C68.6894 80.8636 68.4482 81.1177 68.2753 81.4169C68.1025 81.7161 68.0028 82.0519 67.9844 82.397V98.068C67.9844 98.6993 68.4282 98.9557 68.9791 98.6419L119.864 69.2625C120.154 69.0743 120.395 68.8202 120.568 68.521C120.741 68.2217 120.841 67.8859 120.859 67.5409V51.8889C120.84 51.2576 120.396 51.009 119.864 51.315Z" fill="#D80818"/>
<path opacity="0.2" d="M119.864 51.315L68.9791 80.6753C68.6894 80.8636 68.4482 81.1177 68.2753 81.4169C68.1025 81.7161 68.0028 82.0519 67.9844 82.397V98.068C67.9844 98.6993 68.4282 98.9557 68.9791 98.6419L119.864 69.2625C120.154 69.0743 120.395 68.8202 120.568 68.521C120.741 68.2217 120.841 67.8859 120.859 67.5409V51.8889C120.84 51.2576 120.396 51.009 119.864 51.315Z" fill="white"/>
<path d="M87.4772 72.6065L96.6977 67.2846C97.1568 67.0206 97.528 67.208 97.528 67.7016C97.5077 67.9803 97.422 68.2503 97.2778 68.4897C97.1335 68.729 96.9348 68.9309 96.6977 69.0789L87.4772 74.4008C87.0181 74.6648 86.647 74.4773 86.647 73.9838C86.6672 73.7051 86.7529 73.435 86.8972 73.1957C87.0414 72.9564 87.2402 72.7545 87.4772 72.6065Z" fill="white"/>
<path d="M86.647 77.5725C86.647 78.0661 87.0296 78.2535 87.4772 77.9896L115.349 61.8977C115.585 61.7493 115.782 61.5478 115.926 61.3092C116.069 61.0707 116.155 60.8018 116.176 60.5241C116.176 60.0268 115.793 59.8393 115.349 60.1033L87.4772 76.1952C87.2402 76.3432 87.0414 76.5451 86.8972 76.7845C86.7529 77.0238 86.6672 77.2938 86.647 77.5725Z" fill="white"/>
<path d="M86.647 81.1611C86.647 81.6547 87.0296 81.8422 87.4772 81.5782L115.349 65.4863C115.585 65.3379 115.782 65.1364 115.926 64.8979C116.069 64.6593 116.155 64.3904 116.176 64.1127C116.176 63.6154 115.793 63.4279 115.349 63.6919L87.4772 79.7838C87.2402 79.9318 87.0414 80.1337 86.8972 80.3731C86.7529 80.6124 86.6672 80.8824 86.647 81.1611Z" fill="white"/>
<path d="M86.647 84.75C86.647 85.2435 87.0296 85.431 87.4772 85.167L115.349 69.0751C115.585 68.9268 115.782 68.7253 115.926 68.4867C116.069 68.2481 116.155 67.9792 116.176 67.7016C116.176 67.2042 115.793 67.0168 115.349 67.2807L87.4772 83.3727C87.2402 83.5207 87.0414 83.7226 86.8972 83.9619C86.7529 84.2013 86.6672 84.4713 86.647 84.75Z" fill="white"/>
<path d="M70.5472 81.5744L82.5454 74.6456C83.0963 74.3281 83.5401 74.5844 83.5401 75.2195V87.2789C83.5224 87.6241 83.4229 87.9602 83.25 88.2595C83.0771 88.5588 82.8356 88.8128 82.5454 89.0006L70.5472 95.9294C70.0001 96.2469 69.5525 95.9906 69.5525 95.3555V83.2961C69.5709 82.951 69.6706 82.6152 69.8434 82.316C70.0163 82.0168 70.2575 81.7627 70.5472 81.5744Z" fill="white"/>
<path d="M80.2651 80.6677L76.6955 88.067L74.8782 87.0149C74.791 86.9649 74.6949 86.9326 74.5952 86.9197C74.4955 86.9069 74.3943 86.9139 74.2973 86.9401C74.2003 86.9664 74.1095 87.0116 74.0299 87.073C73.9504 87.1344 73.8837 87.2109 73.8337 87.298L69.5525 94.7089V95.3555C69.5525 95.9906 70.0001 96.2469 70.5472 95.9294L82.5454 89.0006C82.8351 88.8131 83.0762 88.5597 83.2491 88.2612C83.422 87.9626 83.5218 87.6273 83.5401 87.2827V83.0436L81.126 80.5299C81.072 80.4584 80.9995 80.403 80.9164 80.3695C80.8333 80.3361 80.7426 80.3259 80.6541 80.34C80.5657 80.3542 80.4827 80.3922 80.4142 80.4499C80.3456 80.5076 80.2941 80.5829 80.2651 80.6677Z" fill="#D80818"/>
<path d="M71.3545 85.9858C72.0962 85.5027 72.7135 84.8514 73.1563 84.0849C73.599 83.3185 73.8547 82.4584 73.9026 81.5745C73.9281 81.2809 73.8838 80.9854 73.7734 80.7122C73.6631 80.4389 73.4897 80.1956 73.2675 80.002L70.5472 81.5745C70.2575 81.7628 70.0163 82.0168 69.8434 82.3161C69.6706 82.6153 69.5709 82.9511 69.5525 83.2962V86.1656C70.0154 86.4296 70.6505 86.3913 71.3545 85.9858Z" fill="#D80818"/>
<path d="M119.286 3.18464V0.747515C119.286 0.112408 118.838 -0.14393 118.291 0.173623L51.8998 38.5057C51.61 38.694 51.3689 38.9481 51.196 39.2473C51.0231 39.5465 50.9234 39.8824 50.905 40.2274V42.6684L119.286 3.18464Z" fill="#D80818"/>
<path d="M111.141 5.23547C110.927 5.37601 110.749 5.56489 110.621 5.78686C110.494 6.00882 110.42 6.25768 110.406 6.51334C110.406 6.98393 110.736 7.17523 111.141 6.93802C111.356 6.79942 111.536 6.61161 111.664 6.39009C111.792 6.16856 111.866 5.91968 111.879 5.66398C111.879 5.19339 111.55 5.00209 111.141 5.23547Z" fill="#F5F5F5"/>
<path d="M114.068 3.56734C113.853 3.70745 113.674 3.89614 113.546 4.11814C113.418 4.34013 113.344 4.5892 113.329 4.8452C113.329 5.31579 113.662 5.50327 114.068 5.26988C114.283 5.13045 114.462 4.94193 114.591 4.71979C114.719 4.49765 114.793 4.24824 114.806 3.99202C114.806 3.5023 114.477 3.31483 114.068 3.56734Z" fill="#F5F5F5"/>
<path d="M116.995 1.86092C116.779 1.99952 116.6 2.18733 116.472 2.40885C116.343 2.63038 116.27 2.87926 116.256 3.13496C116.256 3.60555 116.585 3.79685 116.995 3.56346C117.209 3.42292 117.387 3.23406 117.514 3.01209C117.642 2.79012 117.716 2.54126 117.729 2.2856C117.729 1.81501 117.4 1.62371 116.995 1.86092Z" fill="#F5F5F5"/>
<path d="M120.346 121.873C120.461 122.167 120.541 122.474 120.583 122.787C120.691 123.112 120.716 123.457 120.655 123.794C120.398 124.223 119.988 124.54 119.508 124.681C119.166 124.76 118.811 124.767 118.467 124.701C118.122 124.635 117.795 124.498 117.507 124.299C116.807 123.882 116.282 123.373 115.288 123.094C114.578 122.941 113.91 122.637 113.329 122.202C112.778 121.762 112.043 120.538 113.095 120.255C114.148 119.972 116.439 120.97 118.524 121.062L120.346 121.873Z" fill="#263238"/>
<path d="M120.246 120.496C120.246 120.496 120.369 121.957 120.369 122.137C120.369 122.631 118.548 123.285 118.211 122.137L117.92 120.584L120.246 120.496Z" fill="#F28F8F"/>
<path d="M118.012 88.4305C118.638 89.3512 119.211 90.3067 119.73 91.2923C119.73 91.2923 119.909 93.4195 119.909 94.8351C119.909 97.4367 119.508 99.4454 119.144 104.572C119.736 105.581 120.075 106.717 120.131 107.885C120.284 110.208 120.288 110.181 120.303 120.894C119.955 121.082 119.572 121.198 119.178 121.236C118.784 121.274 118.386 121.233 118.008 121.115L114.565 106.114L114.182 100.226L113.103 92.9068L118.012 88.4305Z" fill="#37474F"/>
<path d="M109.863 124.555C109.985 124.681 109.943 124.938 110 125.358C110.064 125.682 110.081 126.013 110.05 126.342C109.849 126.797 109.487 127.161 109.032 127.363C108.702 127.482 108.351 127.532 108.001 127.509C107.65 127.486 107.309 127.391 106.997 127.229C106.255 126.9 105.669 126.464 104.648 126.307C103.925 126.245 103.224 126.027 102.593 125.668C101.993 125.286 101.109 124.176 102.119 123.755C103.129 123.335 105.662 124.088 107.739 123.92L109.863 124.555Z" fill="#263238"/>
<path d="M110.34 122.719C110.34 122.719 109.958 124.387 109.855 124.758C109.625 125.649 107.647 125.695 107.647 124.666L107.781 122.294L110.34 122.719Z" fill="#F28F8F"/>
<path d="M113.547 88.8858C114.538 90.8332 115.494 92.551 115.525 94.6247C115.598 99.0131 113.776 103.845 113.107 107.017C113.306 108.165 113.363 109.333 113.275 110.495C113.141 111.822 110.115 123.886 110.115 123.886C110.115 123.886 108.432 124.237 107.716 123.476L108.565 100.249L108.795 93.5037L113.547 88.8858Z" fill="#37474F"/>
<path d="M112.185 76.9909L112.808 80.4457L115.93 80.2162L115.276 76.3022L112.185 76.9909Z" fill="#FFA8A7"/>
<path d="M119.225 79.9637C118.915 79.0263 117.725 78.0048 116.546 78.2267C114.776 78.5276 113.032 78.9624 111.328 79.5275C110.237 79.9101 109.243 80.8628 109.151 84.4515L108.81 93.4807C109.282 93.8999 109.847 94.1992 110.459 94.3531C112.116 94.8083 113.21 95.08 115.728 94.5291C119.006 93.8136 119.787 91.8279 119.787 91.8279C119.787 91.8279 119.661 87.0493 119.561 84.4515C119.481 82.244 119.435 80.6103 119.225 79.9637Z" fill="#455A64"/>
<path d="M110.854 72.5797L94.9567 68.2678C93.5182 68.0191 92.9175 71.5314 94.3561 71.7762L110.681 73.4252L110.854 72.5797Z" fill="#263238"/>
<path d="M106.281 79.8642L103.033 79.9637C103.033 79.9637 103.523 75.1315 103.825 74.4964C104.127 73.8613 104.85 73.7312 105.57 73.5284C106.289 73.3257 106.285 72.9813 106.285 72.9813L105.638 72.9163C105.072 72.8589 104.847 72.1511 105.091 71.6729C105.21 71.451 105.401 71.099 105.746 71.1946L106.603 71.428C106.616 71.0499 106.522 70.6758 106.331 70.3491C106.044 70.0315 105.853 70.131 105.279 69.9321C104.854 69.7829 103.986 69.5189 103.286 69.8058C102.585 70.0928 102.054 71.4089 101.874 72.3386C101.692 73.4137 101.397 74.4665 100.994 75.4797C100.37 77.2014 99.4634 80.7365 99.3677 82.1521C99.3257 82.8064 99.3869 83.1966 100.114 83.3688C100.841 83.5409 106.189 83.5524 106.189 83.5524L106.281 79.8642Z" fill="#FFA8A7"/>
<path d="M109.874 72.901C109.874 72.901 109.108 74.0182 109.216 74.1406C109.388 74.2558 109.58 74.34 109.782 74.3893L109.874 72.901Z" fill="#FFA8A7"/>
<path d="M112.181 69.3735C111.454 69.7561 110.199 70.4179 109.851 73.0808C109.495 75.8125 109.966 76.6925 110.333 77.0559C110.586 77.3008 111.94 77.3161 112.629 77.1095C113.478 76.857 115.395 76.1263 116.271 74.7221C117.3 73.0693 117.53 70.8579 116.37 69.978C115.781 69.5305 115.087 69.2403 114.354 69.1345C113.621 69.0288 112.873 69.111 112.181 69.3735Z" fill="#FFA8A7"/>
<path d="M114.32 102.342L115.976 97.6587C117.26 97.2035 118.411 96.4356 119.324 95.4243C119.324 95.4243 118.941 96.7596 116.324 98.1293L114.507 102.56V105.024L114.32 102.342Z" fill="#263238"/>
<path d="M109.702 70.2726C109.939 70.9268 110.341 72.5337 112.016 73.2033C112.016 73.2033 112.257 72.1817 113.114 72.2888C113.971 72.396 114.121 73.494 113.593 74.175C113.065 74.8561 112.552 74.6112 112.552 74.6112C112.552 74.6112 112.437 76.0765 113.417 76.7422C113.781 76.9573 114.191 77.0847 114.613 77.1146C115.035 77.1445 115.459 77.0759 115.85 76.9144C116.412 76.6581 117.212 75.3075 117.679 74.198C118.666 71.8565 118.807 69.9895 117.296 69.385C117.109 68.3213 116.63 67.9196 115.666 67.7207C113.593 67.296 112.024 68.658 110.283 68.417C109.392 68.2907 109.426 69.5227 109.702 70.2726Z" fill="#263238"/>
<path d="M117.346 69.7561L118.325 69.1478C118.24 69.0284 118.113 68.9461 117.969 68.9174C117.825 68.8886 117.675 68.9157 117.551 68.9931C117.426 69.0705 117.336 69.1925 117.298 69.3341C117.26 69.4758 117.277 69.6267 117.346 69.7561Z" fill="#263238"/>
<path d="M105.554 79.7992C105.554 79.7992 110.126 79.5352 111.293 79.5275C112.46 79.5199 113.7 81.5132 112.973 82.8714C112.491 83.7628 110.987 84.0689 109.093 84.1607C107.199 84.2526 105.29 84.2526 105.29 84.2526C105.29 84.2526 103.588 82.3128 105.554 79.7992Z" fill="#455A64"/>
<path d="M109.151 84.1607C109.151 84.1607 112.047 84.1225 112.996 82.8714C112.996 82.8714 112.774 83.6366 111.649 84.1072C110.843 84.417 109.994 84.6002 109.132 84.6504L109.151 84.1607Z" fill="#37474F"/>
<path d="M94.9567 68.2678C93.5182 68.0191 92.9175 71.5314 94.3561 71.7762L96.6516 72.0058C95.7181 71.9101 96.3647 68.6466 97.0763 68.8379L94.9567 68.2678Z" fill="#455A64"/>
<path d="M152.851 67.3303C152.851 68.0426 152.637 68.7383 152.236 69.3268C151.835 69.9154 151.266 70.3694 150.603 70.6296C149.94 70.8898 149.214 70.9442 148.52 70.7857C147.825 70.6271 147.195 70.2629 146.711 69.7407L146.477 69.4576C145.933 68.7313 145.688 67.8238 145.793 66.9222C145.898 66.0206 146.345 65.1937 147.042 64.6121C147.739 64.0305 148.632 63.7386 149.538 63.7966C150.444 63.8546 151.293 64.2581 151.91 64.9238L152.151 65.2146C152.605 65.8264 152.851 66.5682 152.851 67.3303Z" fill="#455A64"/>
<path d="M152.851 67.3302C152.851 68.0424 152.637 68.7382 152.236 69.3267C151.835 69.9153 151.266 70.3693 150.603 70.6295C149.94 70.8897 149.214 70.9441 148.519 70.7855C147.825 70.627 147.195 70.2628 146.71 69.7406L146.477 69.4575L131.724 51.64L137.941 48.0513L151.91 64.9161L152.151 65.2068C152.607 65.8208 152.852 66.5655 152.851 67.3302Z" fill="#455A64"/>
<path d="M140.646 62.414C141.266 63.0638 142.109 63.4542 143.005 63.5061C143.902 63.5581 144.784 63.2678 145.475 62.6939C146.165 62.12 146.612 61.3054 146.725 60.4146C146.838 59.5239 146.608 58.6235 146.083 57.8955L144.258 55.6956C144.803 56.4222 145.049 57.3305 144.944 58.233C144.838 59.1354 144.391 59.9629 143.693 60.5445C142.995 61.1261 142.1 61.4173 141.193 61.3579C140.287 61.2985 139.437 60.8932 138.821 60.2255L140.646 62.414Z" fill="#D80818"/>
<path d="M137.704 20.0417C138.818 20.1657 139.894 20.5159 140.868 21.0709L136.38 18.4616C133.369 16.3918 129.034 16.5142 124.218 19.2918C115.123 24.5449 107.747 37.3197 107.747 47.8257C107.747 52.9869 109.503 56.6751 112.399 58.4274L112.46 58.4657L117.25 61.2242C116.401 60.6715 115.661 59.9673 115.066 59.1467C116.246 59.2759 117.44 59.2074 118.597 58.9439C119.018 58.8521 119.443 58.7411 119.875 58.6034C119.819 58.5864 119.763 58.5646 119.711 58.5384C119.48 58.4305 119.26 58.3025 119.052 58.1558C118.676 57.8933 118.341 57.5761 118.058 57.2146C117.671 56.7196 117.357 56.1721 117.124 55.5886C116.812 55.6336 116.498 55.6567 116.183 55.6574C115.438 55.6723 114.699 55.5248 114.018 55.2251C113.858 55.1521 113.704 55.069 113.555 54.9764C113.421 54.8922 113.287 54.7928 113.172 54.6933C112.895 53.3982 112.761 52.0768 112.77 50.7526C112.77 40.2504 120.147 27.4717 129.249 22.2187C130.411 21.5408 131.642 20.9893 132.922 20.5735C133.266 20.7144 133.591 20.901 133.886 21.1283C134.198 21.368 134.48 21.6456 134.724 21.9547C135.112 22.4509 135.427 22.9997 135.661 23.5846C135.974 23.5407 136.29 23.519 136.606 23.5195C137.471 23.4963 138.327 23.7036 139.085 24.1202C139.277 24.2248 139.46 24.3451 139.632 24.4798C139.563 24.1737 139.491 23.8715 139.403 23.5846C139.057 22.31 138.481 21.1093 137.704 20.0417Z" fill="#263238"/>
<path d="M140.868 21.0709L140.608 20.9293C139.704 20.4556 138.719 20.1546 137.704 20.0417C136.615 19.9203 135.514 19.9706 134.441 20.1909C133.924 20.2889 133.413 20.4167 132.91 20.5735C131.631 20.9892 130.399 21.5408 129.237 22.2187C120.135 27.4717 112.759 40.2503 112.759 50.7526C112.749 52.0768 112.884 53.3982 113.161 54.6933C113.211 54.9267 113.268 55.1486 113.325 55.3705C113.666 56.7246 114.258 58.0029 115.07 59.139C115.432 59.639 115.85 60.0971 116.313 60.5049C116.609 60.765 116.924 61.0028 117.255 61.2165C120.258 63.1563 124.524 62.9879 129.23 60.2639C138.332 55.0108 145.708 42.236 145.708 31.73C145.704 26.4769 143.856 22.7849 140.868 21.0709ZM139.07 24.1316C139.262 24.2362 139.445 24.3565 139.617 24.4913C139.906 24.7256 140.169 24.9898 140.401 25.2794C141.549 26.718 142.158 28.9562 142.158 31.7414C142.158 40.9237 135.424 52.6005 127.454 57.2031C125.446 58.3509 123.514 58.9783 121.872 58.9783C121.188 58.9864 120.509 58.8562 119.875 58.5957C119.819 58.5787 119.764 58.557 119.711 58.5307C119.481 58.4229 119.26 58.2949 119.053 58.1481C118.795 57.9669 118.556 57.7592 118.341 57.5283C118.245 57.4288 118.154 57.3179 118.062 57.2069C117.675 56.7119 117.361 56.1644 117.128 55.5809C116.545 54.0369 116.267 52.3947 116.31 50.7449C116.31 50.6225 116.31 50.5039 116.31 50.3623C116.478 41.2183 123.139 29.8055 131.005 25.268C131.185 25.1647 131.368 25.0613 131.552 24.9657C132.821 24.2571 134.206 23.7816 135.642 23.5616C135.955 23.5177 136.271 23.496 136.587 23.4965C137.268 23.4907 137.943 23.6207 138.573 23.8791C138.745 23.9477 138.912 24.0309 139.07 24.1278V24.1316Z" fill="#455A64"/>
<path opacity="0.6" d="M140.62 30.6778C140.62 39.8601 133.886 51.5368 125.917 56.1394C123.908 57.2872 121.98 57.9147 120.334 57.9147C119.651 57.9227 118.973 57.7926 118.341 57.5321C118.246 57.4326 118.154 57.3217 118.062 57.2107C117.675 56.7157 117.361 56.1682 117.128 55.5847C116.546 54.0407 116.267 52.3984 116.31 50.7487C116.31 50.6263 116.31 50.5077 116.31 50.3661C116.478 41.2221 123.139 29.8093 131.005 25.2717C131.185 25.1684 131.368 25.0651 131.552 24.9695C132.821 24.2609 134.206 23.7854 135.642 23.5654C135.955 23.5215 136.271 23.4998 136.587 23.5003C137.268 23.4945 137.943 23.6245 138.573 23.8829C138.676 23.9862 138.772 24.0972 138.864 24.2081C140.011 25.6543 140.62 27.8925 140.62 30.6778Z" fill="white"/>
</svg>
